<svg height="682pt" viewBox="-21 -80 682.66501 682" width="682pt" xmlns="http://www.w3.org/2000/svg"><path d="m267.84375 474.0625c-4.359375-.003906-8.28125-2.660156-9.898438-6.714844l-6.667968-16.703125-15.539063 11.667969c-4.714843 3.535156-11.398437 2.585938-14.933593-2.132812-3.535157-4.710938-2.578126-11.394532 2.132812-14.929688l26.664062-20.054688c2.65625-1.996093 6.089844-2.644531 9.292969-1.746093 3.199219.890625 5.796875 3.226562 7.03125 6.3125l11.839844 29.652343c1.3125 3.285157.910156 7.011719-1.078125 9.941407-1.984375 2.929687-5.292969 4.683593-8.832031 4.683593zm0 0"/><path d="m547.535156 483.980469c-.507812 0-1.015625-.035157-1.519531-.109375-5.832031-.828125-9.882813-6.230469-9.054687-12.058594l7.144531-50.246094c.601562-4.207031 3.648437-7.664062 7.75-8.789062 4.105469-1.117188 8.484375.308594 11.140625 3.628906l29.761718 37.234375c3.632813 4.605469 2.871094 11.28125-1.710937 14.941406-4.578125 3.664063-11.257813 2.941407-14.949219-1.613281l-14.34375-17.957031-3.671875 25.808593c-.75 5.246094-5.246093 9.152344-10.546875 9.160157zm0 0"/><path d="m149.339844 60.410156c-2.828125 0-5.542969-1.125-7.542969-3.125l-20.371094-20.34375c-2.699219-2.699218-3.753906-6.632812-2.769531-10.320312.992188-3.6875 3.871094-6.566406 7.558594-7.558594 3.691406-.988281 7.621094.066406 10.320312 2.769531l6.304688 6.300781 2.042968-10.144531c1.15625-5.777343 6.78125-9.515625 12.558594-8.355469 5.773438 1.164063 9.515625 6.78125 8.359375 12.558594l-5.976562 29.652344c-.777344 3.855469-3.609375 6.96875-7.371094 8.105469-1.007813.308593-2.058594.464843-3.113281.460937zm0 0"/><path d="m21.339844 514.65625c-11.785156 0-21.33593775-9.550781-21.33593775-21.332031v-46.25c0-5.894531 4.77734375-10.667969 10.67187475-10.667969 5.886719 0 10.664063 4.773438 10.664063 10.667969v46.25l159.996094-56.46875v-414.671875l-22.460938 7.96875c-3.601562 1.320312-7.644531.609375-10.574219-1.875-2.929687-2.480469-4.304687-6.347656-3.585937-10.125.714844-3.769532 3.398437-6.867188 7.035156-8.109375l36.691406-13.011719c3.265625-1.15625 6.890625-.660156 9.714844 1.335938 2.828125 2.003906 4.511719 5.246093 4.519531 8.710937v437.332031c0 4.519532-2.851562 8.546875-7.121093 10.058594l-167.113282 58.984375c-2.277344.800781-4.679687 1.210937-7.101562 1.203125zm0 0"/><path d="m10.675781 417.738281c-5.894531 0-10.67187475-4.773437-10.67187475-10.664062v-328.449219c0-9.050781 5.71484375-17.117188 14.25390575-20.125l111.15625-39.1875c5.554688-1.960938 11.648438.949219 13.609376 6.507812 1.960937 5.554688-.949219 11.648438-6.503907 13.609376l-111.179687 39.195312v328.449219c0 5.890625-4.777344 10.664062-10.664063 10.664062zm0 0"/><path d="m448.003906 519.070312c-5.894531 0-10.667968-4.773437-10.667968-10.664062v-437.328125c0-4.523437 2.851562-8.554687 7.113281-10.058594l167.113281-58.988281c6.53125-2.304688 13.777344-1.300781 19.425781 2.703125 5.65625 4 9.015625 10.5 9.011719 17.429687v414.699219c.003906 9.042969-5.695312 17.105469-14.21875 20.117188l-37.789062 13.375c-5.554688 1.96875-11.65625-.9375-13.621094-6.492188-1.96875-5.558593.941406-11.65625 6.492187-13.625l37.800781-13.375v-414.699219l-159.996093 56.460938v414.710938l85.335937-30.078126c3.59375-1.269531 7.585938-.527343 10.484375 1.953126 2.894531 2.472656 4.25 6.308593 3.554688 10.058593-.699219 3.742188-3.347657 6.835938-6.941407 8.105469l-99.515624 35.089844c-1.152344.40625-2.363282.613281-3.582032.605468zm0 0"/><path d="m448.003906 519.070312c-.871094 0-1.738281-.105468-2.582031-.316406l-180.160156-45.015625c-5.621094-1.507812-8.996094-7.238281-7.582031-12.890625 1.410156-5.644531 7.089843-9.113281 12.757812-7.800781l166.898438 41.695313v-415.335938l-73.734376-18.460938c-3.722656-.90625-6.675781-3.734374-7.734374-7.410156-1.0625-3.683594-.070313-7.648437 2.601562-10.390625 2.671875-2.746093 6.605469-3.847656 10.3125-2.890625l81.816406 20.476563c4.746094 1.1875 8.070313 5.453125 8.070313 10.347656v437.328125c0 5.890625-4.777344 10.664062-10.664063 10.664062zm0 0"/><path d="m229.339844 464.457031c-.886719 0-1.757813-.105469-2.613282-.316406l-37.332031-9.386719c-4.738281-1.199218-8.058593-5.460937-8.058593-10.34375v-437.332031c.003906-3.285156 1.515624-6.386719 4.101562-8.402344 2.589844-2.019531 5.960938-2.738281 9.152344-1.941406l137.808594 34.453125c3.773437.847656 6.792968 3.675781 7.890624 7.386719 1.09375 3.710937.09375 7.722656-2.617187 10.488281-2.710937 2.757812-6.703125 3.835938-10.433594 2.816406l-124.5625-31.136718v415.347656l29.265625 7.355468c5.222656 1.308594 8.652344 6.308594 7.992188 11.652344-.660156 5.347656-5.199219 9.359375-10.585938 9.359375zm0 0"/><path d="m10.675781 457.738281c-4.589843 0-8.667969-2.9375-10.125-7.292969-1.449219-4.355468.050781-9.152343 3.722657-11.90625l18.1875-13.640624-16.558594-8.222657c-5.265625-2.636719-7.410156-9.042969-4.773438-14.316406 2.632813-5.273437 9.042969-7.414063 14.3125-4.78125l32 16c3.285156 1.660156 5.484375 4.898437 5.816406 8.5625.332032 3.664063-1.25 7.246094-4.1875 9.464844l-31.996093 24c-1.84375 1.390625-4.089844 2.136719-6.398438 2.132812zm0 0"/><path d="m67.847656 300.046875c-3.039062 0-5.933594-1.296875-7.960937-3.566406-4.773438-5.332031-9.4375-10.546875-14.085938-15.199219-4.042969-4.183594-3.984375-10.835938.125-14.953125 4.117188-4.113281 10.769531-4.167969 14.957031-.125 4.917969 4.917969 9.855469 10.410156 14.933594 16.074219 2.796875 3.132812 3.496094 7.621094 1.777344 11.460937-1.71875 3.835938-5.535156 6.308594-9.738281 6.308594zm0 0"/><path d="m398.59375 420.941406c-7.347656-.042968-14.671875-.898437-21.835938-2.550781-3.714843-.835937-6.703124-3.59375-7.835937-7.234375-1.132813-3.636719-.238281-7.605469 2.347656-10.402344 2.585938-2.804687 6.464844-4.011718 10.183594-3.175781 5.625 1.308594 11.371094 1.988281 17.140625 2.027344h1.066406c6.566406-.089844 13.105469-.800781 19.53125-2.128907 5.769532-1.210937 11.425782 2.484376 12.628906 8.25 1.207032 5.773438-2.488281 11.425782-8.253906 12.632813-7.753906 1.597656-15.644531 2.460937-23.566406 2.582031zm-58.324219-19.203125c-2.136719.003907-4.226562-.644531-5.996093-1.855469-12.429688-8.710937-23.632813-19.0625-33.300782-30.769531-3.828125-4.488281-3.292968-11.226562 1.191406-15.058593 4.484376-3.828126 11.226563-3.296876 15.054688 1.191406 8.441406 10.253906 18.222656 19.324218 29.078125 26.976562 3.910156 2.621094 5.632813 7.5 4.242187 11.996094-1.386718 4.503906-5.5625 7.554688-10.269531 7.519531zm119.304688-1.246093c-4.515625.007812-8.546875-2.835938-10.0625-7.089844-1.511719-4.257813-.183594-9.003906 3.320312-11.855469 10.882813-8.851563 21.421875-18.132813 31.328125-27.617187 2.753906-2.628907 6.703125-3.597657 10.367188-2.53125 3.65625 1.066406 6.46875 4.003906 7.371094 7.707031.910156 3.703125-.234376 7.605469-2.984376 10.242187-10.324218 9.875-21.332031 19.539063-32.621093 28.742188-1.898438 1.574218-4.289063 2.433594-6.761719 2.421875zm-324.003907-51.730469c-.5 0-.992187-.035157-1.484374-.109375l-2.132813-.320313c-15.273437-2.917969-29.464844-9.945312-41.035156-20.328125-3.179688-2.351562-4.800781-6.273437-4.203125-10.183594.597656-3.914062 3.308594-7.175781 7.042968-8.46875 3.742188-1.296874 7.890626-.417968 10.78125 2.277344 8.667969 7.902344 19.3125 13.320313 30.804688 15.671875l1.6875.246094c5.570312.75 9.597656 5.691406 9.210938 11.300781-.382813 5.605469-5.050782 9.953125-10.671876 9.933594zm42.152344-3.917969c-5.355468-.015625-9.871094-4-10.550781-9.308594-.679687-5.3125 2.683594-10.304687 7.859375-11.671875 15.046875-3.933593 28.804688-7.105469 42.230469-9.671875 3.765625-.773437 7.652343.542969 10.175781 3.4375 2.527344 2.894532 3.296875 6.921875 2.023438 10.546875-1.269532 3.621094-4.394532 6.285157-8.175782 6.960938-12.90625 2.488281-26.261718 5.539062-40.851562 9.355469-.898438.25-1.820313.371093-2.753906.371093zm343.3125-3.277344c-4.191406.007813-8-2.449218-9.726562-6.265625-1.722656-3.824219-1.054688-8.300781 1.71875-11.445312 1.746094-1.984375 3.476562-3.984375 5.179687-6.007813 7.375-8.679687 14.613281-17.234375 20.890625-26.1875 3.378906-4.828125 10.027344-6 14.855469-2.621094 4.824219 3.378907 6.003906 10.03125 2.625 14.859376-6.847656 9.769531-14.421875 18.695312-21.738281 27.339843-2.136719 2.523438-3.957032 4.628907-5.792969 6.707031-2.03125 2.324219-4.964844 3.652344-8.050781 3.648438zm-250.320312-13.757812c-2.691406.371094-5.347656.726562-7.96875 1.070312-5.542969.710938-10.691406-2.96875-11.8125-8.441406-1.117188-5.46875 2.167968-10.878906 7.546875-12.402344l22.761719-3.457031c6.402343-1.128906 12.875-2.507813 19.199218-4.265625 3.703125-1.125 7.726563-.160156 10.507813 2.53125 2.789062 2.683594 3.894531 6.667969 2.90625 10.410156-.996094 3.738282-3.9375 6.648438-7.6875 7.601563-4.179688 1.171875-8.382813 2.132812-12.578125 3.070312zm69.566406-26.664063c-4.414062.003907-8.375-2.714843-9.960938-6.832031-1.589843-4.121094-.46875-8.789062 2.800782-11.746094 9.652344-8.953125 17.921875-19.285156 24.535156-30.660156 1.894531-3.367188 5.464844-5.445312 9.332031-5.433594 3.863281.015625 7.421875 2.117188 9.292969 5.496094 1.875 3.382812 1.773438 7.515625-.269531 10.796875-7.71875 13.226563-17.359375 25.234375-28.609375 35.625-1.960938 1.753906-4.5 2.71875-7.132813 2.710937zm225.371094-31.039062c-.714844.003906-1.429688-.070313-2.132813-.214844-2.773437-.558594-5.210937-2.199219-6.777343-4.558594-1.5625-2.355469-2.125-5.242187-1.5625-8.015625.761718-3.734375 1.148437-7.539062 1.152343-11.351562v-1.855469c-.277343-7.828125-1.8125-15.558594-4.546875-22.902344-1.414062-3.597656-.769531-7.683593 1.6875-10.675781 2.453125-2.988281 6.335938-4.414062 10.144532-3.722656 3.808593.6875 6.945312 3.390625 8.195312 7.050781 3.535156 9.535156 5.511719 19.585937 5.851562 29.75v2.355469c-.007812 5.238281-.53125 10.460937-1.566406 15.59375-1.011718 4.972656-5.375 8.539062-10.445312 8.546875zm-320.953125-6.945313c-4.597657 0-8.675781-2.945312-10.125-7.304687-4.191407-12.523438-7.195313-25.417969-8.960938-38.507813-.246093-1.730468-.445312-3.625-.597656-5.578125-.460937-5.875 3.925781-11.011719 9.800781-11.472656 5.871094-.460937 11.007813 3.925781 11.46875 9.796875.117188 1.496094.269532 2.964844.46875 4.375 1.578125 11.785156 4.285156 23.390625 8.078125 34.652344 1.082031 3.257812.535157 6.832031-1.46875 9.617187-2.011719 2.78125-5.234375 4.425781-8.664062 4.421875zm138.035156-34.578125c-.652344 0-1.308594-.058593-1.953125-.171875-5.789062-1.078125-9.609375-6.648437-8.535156-12.4375.601562-3.207031.90625-6.464844.910156-9.730468-.042969-8.660157-2.144531-17.191407-6.125-24.882813-1.957031-3.421875-1.867188-7.652344.234375-10.984375 2.105469-3.335938 5.875-5.242188 9.8125-4.953125 3.929687.292969 7.382813 2.730469 8.972656 6.339844 7.699219 14.789062 10.230469 31.730469 7.179688 48.125-.949219 5.046875-5.363281 8.699219-10.496094 8.695312zm-142.273437-49.066406c-1.207032-.007813-2.402344-.210937-3.539063-.613281-2.671875-.9375-4.859375-2.898438-6.078125-5.453125-1.222656-2.554688-1.382812-5.488281-.441406-8.152344 3.511718-10.824219 9.835937-20.519531 18.324218-28.085937 4.214844-3.613282 8.820313-6.753907 13.722657-9.355469 3.367187-1.875 7.496093-1.777344 10.777343.25 3.285157 2.019531 5.21875 5.664062 5.058594 9.519531-.164062 3.851562-2.394531 7.320312-5.832031 9.066406-3.523437 1.875-6.832031 4.132813-9.859375 6.730469-5.628906 5.15625-9.792969 11.703125-12.074219 18.988281-1.5 4.273438-5.527343 7.132813-10.058593 7.132813zm107.808593-23.628906c-2.121093.003906-4.195312-.632813-5.953125-1.820313-10.390625-7.109375-22.320312-11.65625-34.804687-13.273437-5.847657-.710938-10.015625-6.035157-9.300781-11.882813.710937-5.851562 6.035156-10.015625 11.882812-9.300781 15.835938 2.035156 30.96875 7.785156 44.160156 16.78125 3.882813 2.625 5.589844 7.480469 4.214844 11.957031-1.371094 4.484375-5.511719 7.539063-10.199219 7.539063zm0 0"/><path d="m538.667969 191.90625c-2.917969 0-5.710938-1.191406-7.722657-3.304688-4.523437-4.730468-9.433593-9.078124-14.675781-12.992187-4.710937-3.535156-5.667969-10.222656-2.132812-14.933594 3.535156-4.710937 10.21875-5.667969 14.929687-2.132812 6.175782 4.628906 11.964844 9.753906 17.289063 15.335937 2.949219 3.089844 3.765625 7.636719 2.085937 11.5625-1.679687 3.921875-5.535156 6.464844-9.804687 6.464844zm0 0"/><path d="m96.003906 209.742188c-3.695312-.003907-7.121094-1.917969-9.066406-5.0625-1.941406-3.140626-2.117188-7.066407-.46875-10.371094l42.664062-85.335938c2.636719-5.269531 9.042969-7.40625 14.316407-4.773437 5.273437 2.628906 7.414062 9.042969 4.78125 14.308593l-42.664063 85.335938c-1.8125 3.621094-5.511718 5.90625-9.5625 5.898438zm0 0"/><path d="m149.339844 199.074219c-2.828125 0-5.542969-1.121094-7.542969-3.125l-64-63.996094c-2.773437-2.683594-3.882813-6.648437-2.910156-10.371094.976562-3.730469 3.890625-6.648437 7.621093-7.625 3.726563-.976562 7.695313.136719 10.371094 2.910157l64 64c3.050782 3.050781 3.964844 7.636718 2.3125 11.625-1.648437 3.984374-5.539062 6.582031-9.851562 6.582031zm0 0"/><path d="m341.335938 92.410156c-.714844.003906-1.433594-.066406-2.128907-.214844-3.902343-.769531-7.046875-3.652343-8.164062-7.464843l-11.519531-40.214844c-1.175782-3.699219-.25-7.75 2.425781-10.570313 2.671875-2.816406 6.664062-3.960937 10.425781-2.984374 3.757812.980468 6.6875 3.925781 7.652344 7.691406l5.832031 20.332031 11.960937-14.9375c2.226563-3.335937 6.136719-5.140625 10.121094-4.671875 3.984375.472656 7.367188 3.140625 8.753906 6.902344 1.390626 3.761718.546876 7.988281-2.171874 10.933594l-24.855469 31.148437c-2.015625 2.546875-5.082031 4.042969-8.332031 4.050781zm0 0"/></svg>