<?xml version="1.0" encoding="iso-8859-1"?>
<!-- Generator: Adobe Illustrator 19.0.0, SVG Export Plug-In . SVG Version: 6.00 Build 0)  -->
<svg version="1.1" id="Layer_1" xmlns="http://www.w3.org/2000/svg" xmlns:xlink="http://www.w3.org/1999/xlink" x="0px" y="0px"
	 viewBox="0 0 512 512" style="enable-background:new 0 0 512 512;" xml:space="preserve">
<g>
	<g>
		<path d="M255.998,136.108c-92.597,0-167.93,75.332-167.93,167.93s75.333,167.93,167.93,167.93s167.93-75.332,167.93-167.93
			S348.595,136.108,255.998,136.108z M255.998,456.366c-83.994,0-152.327-68.334-152.327-152.327s68.334-152.327,152.327-152.327
			s152.327,68.334,152.327,152.327S339.993,456.366,255.998,456.366z"/>
	</g>
</g>
<g>
	<g>
		<rect x="248.198" y="167.934" width="15.603" height="32.026"/>
	</g>
</g>
<g>
	<g>
		<rect x="248.198" y="408.123" width="15.603" height="32.025"/>
	</g>
</g>
<g>
	<g>
		<rect x="360.085" y="296.236" width="32.026" height="15.603"/>
	</g>
</g>
<g>
	<g>
		<rect x="119.886" y="296.236" width="32.025" height="15.603"/>
	</g>
</g>
<g>
	<g>
		<path d="M286.395,267.124l1.372-81.654l-39.745,71.597c-22.67,3.847-39.857,23.701-39.857,46.97
			c0,14.358,6.448,27.861,17.437,36.914l-1.373,81.653l39.746-71.596c22.67-3.847,39.857-23.701,39.857-46.97
			C303.832,289.679,297.384,276.176,286.395,267.124z M258.476,335.982l-4.183,0.324l-13.411,24.157l0.461-27.424l-3.473-2.371
			c-8.829-6.026-14.1-15.981-14.1-26.63c0-16.621,13.069-30.652,29.755-31.943l4.183-0.324l13.412-24.157l-0.462,27.424l3.473,2.371
			c8.829,6.025,14.1,15.981,14.1,26.63C288.231,320.661,275.162,334.691,258.476,335.982z"/>
	</g>
</g>
<g>
	<g>
		<path d="M255.998,280.223c-13.132,0-23.815,10.683-23.815,23.815c0,13.132,10.683,23.815,23.815,23.815
			c13.132,0,23.815-10.683,23.815-23.815C279.813,290.906,269.13,280.223,255.998,280.223z M255.998,312.25
			c-4.528,0-8.212-3.683-8.212-8.212s3.683-8.212,8.212-8.212c4.528,0,8.212,3.683,8.212,8.212S260.527,312.25,255.998,312.25z"/>
	</g>
</g>
<g>
	<g>
		
			<rect x="338.593" y="205.639" transform="matrix(0.7071 -0.7071 0.7071 0.7071 -49.4086 307.597)" width="16.013" height="15.602"/>
	</g>
</g>
<g>
	<g>
		
			<rect x="157.395" y="386.805" transform="matrix(0.7072 -0.707 0.707 0.7072 -230.5612 232.4788)" width="16.013" height="15.603"/>
	</g>
</g>
<g>
	<g>
		
			<rect x="338.754" y="386.609" transform="matrix(0.7071 -0.7071 0.7071 0.7071 -177.5316 360.6333)" width="15.603" height="16.013"/>
	</g>
</g>
<g>
	<g>
		
			<rect x="157.609" y="205.446" transform="matrix(0.7071 -0.7071 0.7071 0.7071 -102.4857 179.4816)" width="15.602" height="16.013"/>
	</g>
</g>
<g>
	<g>
		<path d="M446.478,220.448c-11.166-25.409-27.073-48.024-47.28-67.217c-3.982-3.782-8.17-7.455-12.445-10.917l-9.818,12.128
			c3.957,3.203,7.832,6.602,11.516,10.102c38.556,36.622,59.832,86.066,59.907,139.224
			c0.149,106.067-86.023,192.479-192.089,192.627c-0.097,0-0.176,0-0.274,0c-105.933-0.008-192.205-86.118-192.354-192.087
			C63.492,198.24,149.663,111.829,255.73,111.68c0.094,0,0.186,0,0.281,0c28.481,0,55.898,6.078,81.489,18.067l6.619-14.129
			c-20.472-9.591-42.018-15.673-64.306-18.196v-8.13c14.343-8.265,24.02-23.748,24.02-41.457C303.833,21.458,282.374,0,255.998,0
			s-47.833,21.458-47.833,47.834c0,17.709,9.677,33.193,24.019,41.457v8.157C128.567,109.316,47.888,197.613,48.038,304.329
			C48.198,418.902,141.46,512.001,255.995,512c0.099,0,0.197,0,0.295,0c114.669-0.16,207.831-93.582,207.671-208.253
			C463.92,274.782,458.038,246.757,446.478,220.448z M264.21,96.076h-16.422V79.654h16.422V96.076z M232.183,64.051v5.464
			c-5.221-5.729-8.414-13.337-8.414-21.681c0-17.771,14.458-32.23,32.229-32.23c17.772,0,32.23,14.458,32.23,32.23
			c0,8.345-3.193,15.954-8.417,21.683v-5.465H232.183z"/>
	</g>
</g>
<g>
	<g>
		<path d="M359.254,123.482l-7.757,13.539c4.48,2.567,8.917,5.354,13.188,8.284l8.826-12.868
			C368.894,129.271,364.098,126.258,359.254,123.482z"/>
	</g>
</g>
<g>
</g>
<g>
</g>
<g>
</g>
<g>
</g>
<g>
</g>
<g>
</g>
<g>
</g>
<g>
</g>
<g>
</g>
<g>
</g>
<g>
</g>
<g>
</g>
<g>
</g>
<g>
</g>
<g>
</g>
</svg>
